<?xml version="1.0" encoding="UTF-8"?><svg xmlns="http://www.w3.org/2000/svg" viewBox="0 0 720 360" width="720" height="360" font-family="ui-sans-serif, system-ui, -apple-system, BlinkMacSystemFont, &quot;Segoe UI&quot;, Helvetica, Arial, sans-serif" font-size="12">
  <rect x="0" y="0" width="720" height="360" fill="#0d1117"/>
  <text x="360" y="26" text-anchor="middle" font-size="15" font-weight="600" fill="#e6edf3">wireform-yaml decode vs libyaml across input sizes</text>
  <text x="360" y="44" text-anchor="middle" font-size="11" fill="#7d8590">lower is better · µs · ghc-9.8.4 on darwin-aarch64, criterion 1.6.5</text>
  <g stroke="#30363d" stroke-width="1">
    <line x1="80" y1="320" x2="700" y2="320"/>
    <line x1="80" y1="60" x2="80" y2="320"/>
  </g>
  <g>
    <g/>
    <text x="72" y="324" text-anchor="end" font-size="10" fill="#7d8590">0</text>
    <line x1="80" y1="255" x2="700" y2="255" stroke="#30363d" stroke-width="1" stroke-dasharray="2 3"/>
    <text x="72" y="259" text-anchor="end" font-size="10" fill="#7d8590">50.0</text>
    <line x1="80" y1="190" x2="700" y2="190" stroke="#30363d" stroke-width="1" stroke-dasharray="2 3"/>
    <text x="72" y="194" text-anchor="end" font-size="10" fill="#7d8590">100</text>
    <line x1="80" y1="125" x2="700" y2="125" stroke="#30363d" stroke-width="1" stroke-dasharray="2 3"/>
    <text x="72" y="129" text-anchor="end" font-size="10" fill="#7d8590">150</text>
    <line x1="80" y1="60" x2="700" y2="60" stroke="#30363d" stroke-width="1" stroke-dasharray="2 3"/>
    <text x="72" y="64" text-anchor="end" font-size="10" fill="#7d8590">200</text>
  </g>
  <g>
    <rect x="92.4" y="319.7" width="47.6" height="0.3" rx="2" fill="#58a6ff"/>
    <rect x="142" y="309.6" width="47.6" height="10.4" rx="2" fill="#ff7b72"/>
    <rect x="216.4" y="315.1" width="47.6" height="4.9" rx="2" fill="#58a6ff"/>
    <rect x="266" y="267.8" width="47.6" height="52.2" rx="2" fill="#ff7b72"/>
    <rect x="340.4" y="314.8" width="47.6" height="5.2" rx="2" fill="#58a6ff"/>
    <rect x="390" y="241.3" width="47.6" height="78.7" rx="2" fill="#ff7b72"/>
    <rect x="464.4" y="314.8" width="47.6" height="5.2" rx="2" fill="#58a6ff"/>
    <rect x="514" y="302.9" width="47.6" height="17.1" rx="2" fill="#ff7b72"/>
    <rect x="588.4" y="300.7" width="47.6" height="19.3" rx="2" fill="#58a6ff"/>
    <rect x="638" y="139.0" width="47.6" height="181.0" rx="2" fill="#ff7b72"/>
  </g>
  <g>
    <text x="116.2" y="315.7" text-anchor="middle" font-size="10" fill="#e6edf3">0.250</text>
    <text x="165.8" y="305.6" text-anchor="middle" font-size="10" fill="#e6edf3">8.01</text>
    <text x="240.2" y="311.1" text-anchor="middle" font-size="10" fill="#e6edf3">3.80</text>
    <text x="289.8" y="263.8" text-anchor="middle" font-size="10" fill="#e6edf3">40.2</text>
    <text x="364.2" y="310.8" text-anchor="middle" font-size="10" fill="#e6edf3">4.02</text>
    <text x="413.8" y="237.3" text-anchor="middle" font-size="10" fill="#e6edf3">60.5</text>
    <text x="488.2" y="310.8" text-anchor="middle" font-size="10" fill="#e6edf3">3.97</text>
    <text x="537.8" y="298.9" text-anchor="middle" font-size="10" fill="#e6edf3">13.2</text>
    <text x="612.2" y="296.7" text-anchor="middle" font-size="10" fill="#e6edf3">14.9</text>
    <text x="661.8" y="135.0" text-anchor="middle" font-size="10" fill="#e6edf3">139</text>
  </g>
  <g>
    <text x="142" y="336" text-anchor="middle" font-size="11" fill="#e6edf3">tiny</text>
    <text x="266" y="336" text-anchor="middle" font-size="11" fill="#e6edf3">small</text>
    <text x="390" y="336" text-anchor="middle" font-size="11" fill="#e6edf3">flow</text>
    <text x="514" y="336" text-anchor="middle" font-size="11" fill="#e6edf3">literal</text>
    <text x="638" y="336" text-anchor="middle" font-size="11" fill="#e6edf3">big</text>
  </g>
  <g>
    <g transform="translate(239.5, 344)">
      <rect x="0" y="-9" width="12" height="12" rx="2" fill="#58a6ff"/>
      <text x="18" y="1" font-size="11" fill="#e6edf3">wireform-yaml</text>
    </g>
    <g transform="translate(364.5, 344)">
      <rect x="0" y="-9" width="12" height="12" rx="2" fill="#ff7b72"/>
      <text x="18" y="1" font-size="11" fill="#e6edf3">yaml (libyaml)</text>
    </g>
  </g>
</svg>
