<?xml version="1.0" encoding="UTF-8"?><svg xmlns="http://www.w3.org/2000/svg" viewBox="0 0 720 360" width="720" height="360" font-family="ui-sans-serif, system-ui, -apple-system, BlinkMacSystemFont, &quot;Segoe UI&quot;, Helvetica, Arial, sans-serif" font-size="12">
  <rect x="0" y="0" width="720" height="360" fill="#0d1117"/>
  <text x="360" y="26" text-anchor="middle" font-size="15" font-weight="600" fill="#e6edf3">wireform-yaml decode vs HsYAML (pure Haskell) across input sizes</text>
  <text x="360" y="44" text-anchor="middle" font-size="11" fill="#7d8590">lower is better · µs · ghc-9.8.4 on darwin-aarch64, criterion 1.6.5</text>
  <g stroke="#30363d" stroke-width="1">
    <line x1="80" y1="320" x2="700" y2="320"/>
    <line x1="80" y1="60" x2="80" y2="320"/>
  </g>
  <g>
    <g/>
    <text x="72" y="324" text-anchor="end" font-size="10" fill="#7d8590">0</text>
    <line x1="80" y1="255" x2="700" y2="255" stroke="#30363d" stroke-width="1" stroke-dasharray="2 3"/>
    <text x="72" y="259" text-anchor="end" font-size="10" fill="#7d8590">1250</text>
    <line x1="80" y1="190" x2="700" y2="190" stroke="#30363d" stroke-width="1" stroke-dasharray="2 3"/>
    <text x="72" y="194" text-anchor="end" font-size="10" fill="#7d8590">2500</text>
    <line x1="80" y1="125" x2="700" y2="125" stroke="#30363d" stroke-width="1" stroke-dasharray="2 3"/>
    <text x="72" y="129" text-anchor="end" font-size="10" fill="#7d8590">3750</text>
    <line x1="80" y1="60" x2="700" y2="60" stroke="#30363d" stroke-width="1" stroke-dasharray="2 3"/>
    <text x="72" y="64" text-anchor="end" font-size="10" fill="#7d8590">5000</text>
  </g>
  <g>
    <rect x="92.4" y="320.0" width="47.6" height="0.0" rx="2" fill="#58a6ff"/>
    <rect x="142" y="314.7" width="47.6" height="5.3" rx="2" fill="#ff7b72"/>
    <rect x="216.4" y="319.8" width="47.6" height="0.2" rx="2" fill="#58a6ff"/>
    <rect x="266" y="267.9" width="47.6" height="52.1" rx="2" fill="#ff7b72"/>
    <rect x="340.4" y="319.8" width="47.6" height="0.2" rx="2" fill="#58a6ff"/>
    <rect x="390" y="255.4" width="47.6" height="64.6" rx="2" fill="#ff7b72"/>
    <rect x="464.4" y="319.8" width="47.6" height="0.2" rx="2" fill="#58a6ff"/>
    <rect x="514" y="259.3" width="47.6" height="60.7" rx="2" fill="#ff7b72"/>
    <rect x="588.4" y="319.2" width="47.6" height="0.8" rx="2" fill="#58a6ff"/>
    <rect x="638" y="131.4" width="47.6" height="188.6" rx="2" fill="#ff7b72"/>
  </g>
  <g>
    <text x="116.2" y="316.0" text-anchor="middle" font-size="10" fill="#e6edf3">0.250</text>
    <text x="165.8" y="310.7" text-anchor="middle" font-size="10" fill="#e6edf3">102</text>
    <text x="240.2" y="315.8" text-anchor="middle" font-size="10" fill="#e6edf3">3.80</text>
    <text x="289.8" y="263.9" text-anchor="middle" font-size="10" fill="#e6edf3">1002</text>
    <text x="364.2" y="315.8" text-anchor="middle" font-size="10" fill="#e6edf3">4.02</text>
    <text x="413.8" y="251.4" text-anchor="middle" font-size="10" fill="#e6edf3">1242</text>
    <text x="488.2" y="315.8" text-anchor="middle" font-size="10" fill="#e6edf3">3.97</text>
    <text x="537.8" y="255.3" text-anchor="middle" font-size="10" fill="#e6edf3">1167</text>
    <text x="612.2" y="315.2" text-anchor="middle" font-size="10" fill="#e6edf3">14.9</text>
    <text x="661.8" y="127.4" text-anchor="middle" font-size="10" fill="#e6edf3">3627</text>
  </g>
  <g>
    <text x="142" y="336" text-anchor="middle" font-size="11" fill="#e6edf3">tiny</text>
    <text x="266" y="336" text-anchor="middle" font-size="11" fill="#e6edf3">small</text>
    <text x="390" y="336" text-anchor="middle" font-size="11" fill="#e6edf3">flow</text>
    <text x="514" y="336" text-anchor="middle" font-size="11" fill="#e6edf3">literal</text>
    <text x="638" y="336" text-anchor="middle" font-size="11" fill="#e6edf3">big</text>
  </g>
  <g>
    <g transform="translate(267.5, 344)">
      <rect x="0" y="-9" width="12" height="12" rx="2" fill="#58a6ff"/>
      <text x="18" y="1" font-size="11" fill="#e6edf3">wireform-yaml</text>
    </g>
    <g transform="translate(392.5, 344)">
      <rect x="0" y="-9" width="12" height="12" rx="2" fill="#ff7b72"/>
      <text x="18" y="1" font-size="11" fill="#e6edf3">HsYAML</text>
    </g>
  </g>
</svg>
