<?xml version="1.0" encoding="UTF-8"?><svg xmlns="http://www.w3.org/2000/svg" viewBox="0 0 720 360" width="720" height="360" font-family="ui-sans-serif, system-ui, -apple-system, BlinkMacSystemFont, &quot;Segoe UI&quot;, Helvetica, Arial, sans-serif" font-size="12">
  <rect x="0" y="0" width="720" height="360" fill="#ffffff"/>
  <text x="360" y="26" text-anchor="middle" font-size="15" font-weight="600" fill="#1f2328">Iceberg deletion vector hot paths: C vs pure Haskell</text>
  <text x="360" y="44" text-anchor="middle" font-size="11" fill="#656d76">lower is better · ns · ghc-9.8.4 on darwin-aarch64, criterion 1.6.5</text>
  <g stroke="#d0d7de" stroke-width="1">
    <line x1="80" y1="320" x2="700" y2="320"/>
    <line x1="80" y1="60" x2="80" y2="320"/>
  </g>
  <g>
    <g/>
    <text x="72" y="324" text-anchor="end" font-size="10" fill="#656d76">0</text>
    <line x1="80" y1="255" x2="700" y2="255" stroke="#d0d7de" stroke-width="1" stroke-dasharray="2 3"/>
    <text x="72" y="259" text-anchor="end" font-size="10" fill="#656d76">12500</text>
    <line x1="80" y1="190" x2="700" y2="190" stroke="#d0d7de" stroke-width="1" stroke-dasharray="2 3"/>
    <text x="72" y="194" text-anchor="end" font-size="10" fill="#656d76">25000</text>
    <line x1="80" y1="125" x2="700" y2="125" stroke="#d0d7de" stroke-width="1" stroke-dasharray="2 3"/>
    <text x="72" y="129" text-anchor="end" font-size="10" fill="#656d76">37500</text>
    <line x1="80" y1="60" x2="700" y2="60" stroke="#d0d7de" stroke-width="1" stroke-dasharray="2 3"/>
    <text x="72" y="64" text-anchor="end" font-size="10" fill="#656d76">50000</text>
  </g>
  <g>
    <rect x="171" y="266.6" width="62" height="53.4" rx="2" fill="#0969da"/>
    <rect x="235" y="165.1" width="62" height="154.9" rx="2" fill="#cf222e"/>
    <rect x="481" y="319.9" width="62" height="0.1" rx="2" fill="#0969da"/>
    <rect x="545" y="314.5" width="62" height="5.5" rx="2" fill="#cf222e"/>
  </g>
  <g>
    <text x="202" y="262.6" text-anchor="middle" font-size="10" fill="#1f2328">10262</text>
    <text x="266" y="161.1" text-anchor="middle" font-size="10" fill="#1f2328">29795</text>
    <text x="512" y="315.9" text-anchor="middle" font-size="10" fill="#1f2328">12.2</text>
    <text x="576" y="310.5" text-anchor="middle" font-size="10" fill="#1f2328">1049</text>
  </g>
  <g>
    <text x="235" y="336" text-anchor="middle" font-size="11" fill="#1f2328">decode 1001 positions</text>
    <text x="545" y="336" text-anchor="middle" font-size="11" fill="#1f2328">contains check</text>
  </g>
  <g>
    <g transform="translate(264, 344)">
      <rect x="0" y="-9" width="12" height="12" rx="2" fill="#0969da"/>
      <text x="18" y="1" font-size="11" fill="#1f2328">C kernel</text>
    </g>
    <g transform="translate(354, 344)">
      <rect x="0" y="-9" width="12" height="12" rx="2" fill="#cf222e"/>
      <text x="18" y="1" font-size="11" fill="#1f2328">pure Haskell</text>
    </g>
  </g>
</svg>
