<?xml version="1.0" encoding="UTF-8"?><svg xmlns="http://www.w3.org/2000/svg" viewBox="0 0 720 360" width="720" height="360" font-family="ui-sans-serif, system-ui, -apple-system, BlinkMacSystemFont, &quot;Segoe UI&quot;, Helvetica, Arial, sans-serif" font-size="12">
  <rect x="0" y="0" width="720" height="360" fill="#ffffff"/>
  <text x="360" y="26" text-anchor="middle" font-size="15" font-weight="600" fill="#1f2328">wireform-xml DOM parse vs Hackage XML libraries (medium document)</text>
  <text x="360" y="44" text-anchor="middle" font-size="11" fill="#656d76">lower is better · µs · ghc-9.8.4 on darwin-aarch64, criterion 1.6.5</text>
  <g stroke="#d0d7de" stroke-width="1">
    <line x1="80" y1="320" x2="700" y2="320"/>
    <line x1="80" y1="60" x2="80" y2="320"/>
  </g>
  <g>
    <g/>
    <text x="72" y="324" text-anchor="end" font-size="10" fill="#656d76">0</text>
    <line x1="80" y1="255" x2="700" y2="255" stroke="#d0d7de" stroke-width="1" stroke-dasharray="2 3"/>
    <text x="72" y="259" text-anchor="end" font-size="10" fill="#656d76">500</text>
    <line x1="80" y1="190" x2="700" y2="190" stroke="#d0d7de" stroke-width="1" stroke-dasharray="2 3"/>
    <text x="72" y="194" text-anchor="end" font-size="10" fill="#656d76">1000</text>
    <line x1="80" y1="125" x2="700" y2="125" stroke="#d0d7de" stroke-width="1" stroke-dasharray="2 3"/>
    <text x="72" y="129" text-anchor="end" font-size="10" fill="#656d76">1500</text>
    <line x1="80" y1="60" x2="700" y2="60" stroke="#d0d7de" stroke-width="1" stroke-dasharray="2 3"/>
    <text x="72" y="64" text-anchor="end" font-size="10" fill="#656d76">2000</text>
  </g>
  <g>
    <rect x="262" y="316.2" width="62" height="3.8" rx="2" fill="#0969da"/>
    <rect x="326" y="313.0" width="62" height="7.0" rx="2" fill="#cf222e"/>
    <rect x="390" y="294.8" width="62" height="25.2" rx="2" fill="#1a7f37"/>
    <rect x="454" y="110.7" width="62" height="209.3" rx="2" fill="#bf8700"/>
  </g>
  <g>
    <text x="293" y="312.2" text-anchor="middle" font-size="10" fill="#1f2328">29.0</text>
    <text x="357" y="309.0" text-anchor="middle" font-size="10" fill="#1f2328">53.6</text>
    <text x="421" y="290.8" text-anchor="middle" font-size="10" fill="#1f2328">194</text>
    <text x="485" y="106.7" text-anchor="middle" font-size="10" fill="#1f2328">1610</text>
  </g>
  <g>
    <text x="390" y="336" text-anchor="middle" font-size="11" fill="#1f2328">medium document</text>
  </g>
  <g>
    <g transform="translate(37.5, 344)">
      <rect x="0" y="-9" width="12" height="12" rx="2" fill="#0969da"/>
      <text x="18" y="1" font-size="11" fill="#1f2328">hexml (C bindings)</text>
    </g>
    <g transform="translate(197.5, 344)">
      <rect x="0" y="-9" width="12" height="12" rx="2" fill="#cf222e"/>
      <text x="18" y="1" font-size="11" fill="#1f2328">wireform-xml (FastDOM)</text>
    </g>
    <g transform="translate(385.5, 344)">
      <rect x="0" y="-9" width="12" height="12" rx="2" fill="#1a7f37"/>
      <text x="18" y="1" font-size="11" fill="#1f2328">wireform-xml (typed DOM)</text>
    </g>
    <g transform="translate(587.5, 344)">
      <rect x="0" y="-9" width="12" height="12" rx="2" fill="#bf8700"/>
      <text x="18" y="1" font-size="11" fill="#1f2328">xml-conduit</text>
    </g>
  </g>
</svg>
