<?xml version="1.0" encoding="UTF-8"?><svg xmlns="http://www.w3.org/2000/svg" viewBox="0 0 720 360" width="720" height="360" font-family="ui-sans-serif, system-ui, -apple-system, BlinkMacSystemFont, &quot;Segoe UI&quot;, Helvetica, Arial, sans-serif" font-size="12">
  <rect x="0" y="0" width="720" height="360" fill="#0d1117"/>
  <text x="360" y="26" text-anchor="middle" font-size="15" font-weight="600" fill="#e6edf3">wireform-proto vs proto-lens (decode)</text>
  <text x="360" y="44" text-anchor="middle" font-size="11" fill="#7d8590">lower is better · ns · ghc-9.8.4 on darwin-aarch64, criterion 1.6.5</text>
  <g stroke="#30363d" stroke-width="1">
    <line x1="80" y1="320" x2="700" y2="320"/>
    <line x1="80" y1="60" x2="80" y2="320"/>
  </g>
  <g>
    <g/>
    <text x="72" y="324" text-anchor="end" font-size="10" fill="#7d8590">0</text>
    <line x1="80" y1="255" x2="700" y2="255" stroke="#30363d" stroke-width="1" stroke-dasharray="2 3"/>
    <text x="72" y="259" text-anchor="end" font-size="10" fill="#7d8590">625</text>
    <line x1="80" y1="190" x2="700" y2="190" stroke="#30363d" stroke-width="1" stroke-dasharray="2 3"/>
    <text x="72" y="194" text-anchor="end" font-size="10" fill="#7d8590">1250</text>
    <line x1="80" y1="125" x2="700" y2="125" stroke="#30363d" stroke-width="1" stroke-dasharray="2 3"/>
    <text x="72" y="129" text-anchor="end" font-size="10" fill="#7d8590">1875</text>
    <line x1="80" y1="60" x2="700" y2="60" stroke="#30363d" stroke-width="1" stroke-dasharray="2 3"/>
    <text x="72" y="64" text-anchor="end" font-size="10" fill="#7d8590">2500</text>
  </g>
  <g>
    <rect x="95.5" y="317.8" width="60" height="2.2" rx="2" fill="#58a6ff"/>
    <rect x="157.5" y="312.0" width="60" height="8.0" rx="2" fill="#ff7b72"/>
    <rect x="250.5" y="314.1" width="60" height="5.9" rx="2" fill="#58a6ff"/>
    <rect x="312.5" y="299.4" width="60" height="20.6" rx="2" fill="#ff7b72"/>
    <rect x="405.5" y="314.9" width="60" height="5.1" rx="2" fill="#58a6ff"/>
    <rect x="467.5" y="305.3" width="60" height="14.7" rx="2" fill="#ff7b72"/>
    <rect x="560.5" y="245.6" width="60" height="74.4" rx="2" fill="#58a6ff"/>
    <rect x="622.5" y="100.9" width="60" height="219.1" rx="2" fill="#ff7b72"/>
  </g>
  <g>
    <text x="125.5" y="313.8" text-anchor="middle" font-size="10" fill="#e6edf3">20.7</text>
    <text x="187.5" y="308.0" text-anchor="middle" font-size="10" fill="#e6edf3">76.4</text>
    <text x="280.5" y="310.1" text-anchor="middle" font-size="10" fill="#e6edf3">57.0</text>
    <text x="342.5" y="295.4" text-anchor="middle" font-size="10" fill="#e6edf3">198</text>
    <text x="435.5" y="310.9" text-anchor="middle" font-size="10" fill="#e6edf3">48.6</text>
    <text x="497.5" y="301.3" text-anchor="middle" font-size="10" fill="#e6edf3">141</text>
    <text x="590.5" y="241.6" text-anchor="middle" font-size="10" fill="#e6edf3">715</text>
    <text x="652.5" y="96.9" text-anchor="middle" font-size="10" fill="#e6edf3">2107</text>
  </g>
  <g>
    <text x="157.5" y="336" text-anchor="middle" font-size="11" fill="#e6edf3">Small</text>
    <text x="312.5" y="336" text-anchor="middle" font-size="11" fill="#e6edf3">Medium</text>
    <text x="467.5" y="336" text-anchor="middle" font-size="11" fill="#e6edf3">Nested</text>
    <text x="622.5" y="336" text-anchor="middle" font-size="11" fill="#e6edf3">Repeated</text>
  </g>
  <g>
    <g transform="translate(250, 344)">
      <rect x="0" y="-9" width="12" height="12" rx="2" fill="#58a6ff"/>
      <text x="18" y="1" font-size="11" fill="#e6edf3">wireform-proto</text>
    </g>
    <g transform="translate(382, 344)">
      <rect x="0" y="-9" width="12" height="12" rx="2" fill="#ff7b72"/>
      <text x="18" y="1" font-size="11" fill="#e6edf3">proto-lens</text>
    </g>
  </g>
</svg>
