<?xml version="1.0" encoding="UTF-8"?><svg xmlns="http://www.w3.org/2000/svg" viewBox="0 0 720 360" width="720" height="360" font-family="ui-sans-serif, system-ui, -apple-system, BlinkMacSystemFont, &quot;Segoe UI&quot;, Helvetica, Arial, sans-serif" font-size="12">
  <rect x="0" y="0" width="720" height="360" fill="#0d1117"/>
  <text x="360" y="26" text-anchor="middle" font-size="15" font-weight="600" fill="#e6edf3">wireform-cbor vs cborg</text>
  <text x="360" y="44" text-anchor="middle" font-size="11" fill="#7d8590">lower is better · ns · ghc-9.8.4 on darwin-aarch64, criterion 1.6.5</text>
  <g stroke="#30363d" stroke-width="1">
    <line x1="80" y1="320" x2="700" y2="320"/>
    <line x1="80" y1="60" x2="80" y2="320"/>
  </g>
  <g>
    <g/>
    <text x="72" y="324" text-anchor="end" font-size="10" fill="#7d8590">0</text>
    <line x1="80" y1="255" x2="700" y2="255" stroke="#30363d" stroke-width="1" stroke-dasharray="2 3"/>
    <text x="72" y="259" text-anchor="end" font-size="10" fill="#7d8590">500</text>
    <line x1="80" y1="190" x2="700" y2="190" stroke="#30363d" stroke-width="1" stroke-dasharray="2 3"/>
    <text x="72" y="194" text-anchor="end" font-size="10" fill="#7d8590">1000</text>
    <line x1="80" y1="125" x2="700" y2="125" stroke="#30363d" stroke-width="1" stroke-dasharray="2 3"/>
    <text x="72" y="129" text-anchor="end" font-size="10" fill="#7d8590">1500</text>
    <line x1="80" y1="60" x2="700" y2="60" stroke="#30363d" stroke-width="1" stroke-dasharray="2 3"/>
    <text x="72" y="64" text-anchor="end" font-size="10" fill="#7d8590">2000</text>
  </g>
  <g>
    <rect x="171" y="280.3" width="62" height="39.7" rx="2" fill="#58a6ff"/>
    <rect x="235" y="284.3" width="62" height="35.7" rx="2" fill="#ff7b72"/>
    <rect x="481" y="260.2" width="62" height="59.8" rx="2" fill="#58a6ff"/>
    <rect x="545" y="162.1" width="62" height="157.9" rx="2" fill="#ff7b72"/>
  </g>
  <g>
    <text x="202" y="276.3" text-anchor="middle" font-size="10" fill="#e6edf3">305</text>
    <text x="266" y="280.3" text-anchor="middle" font-size="10" fill="#e6edf3">275</text>
    <text x="512" y="256.2" text-anchor="middle" font-size="10" fill="#e6edf3">460</text>
    <text x="576" y="158.1" text-anchor="middle" font-size="10" fill="#e6edf3">1214</text>
  </g>
  <g>
    <text x="235" y="336" text-anchor="middle" font-size="11" fill="#e6edf3">encode</text>
    <text x="545" y="336" text-anchor="middle" font-size="11" fill="#e6edf3">decode</text>
  </g>
  <g>
    <g transform="translate(271, 344)">
      <rect x="0" y="-9" width="12" height="12" rx="2" fill="#58a6ff"/>
      <text x="18" y="1" font-size="11" fill="#e6edf3">wireform-cbor</text>
    </g>
    <g transform="translate(396, 344)">
      <rect x="0" y="-9" width="12" height="12" rx="2" fill="#ff7b72"/>
      <text x="18" y="1" font-size="11" fill="#e6edf3">cborg</text>
    </g>
  </g>
</svg>
