<?xml version="1.0" encoding="UTF-8"?><svg xmlns="http://www.w3.org/2000/svg" viewBox="0 0 720 360" width="720" height="360" font-family="ui-sans-serif, system-ui, -apple-system, BlinkMacSystemFont, &quot;Segoe UI&quot;, Helvetica, Arial, sans-serif" font-size="12">
  <rect x="0" y="0" width="720" height="360" fill="#ffffff"/>
  <text x="360" y="26" text-anchor="middle" font-size="15" font-weight="600" fill="#1f2328">wireform-fory encode + decode across representative shapes</text>
  <text x="360" y="44" text-anchor="middle" font-size="11" fill="#656d76">lower is better · ns · ghc-9.8.4 on darwin-aarch64, criterion 1.6.5</text>
  <g stroke="#d0d7de" stroke-width="1">
    <line x1="80" y1="320" x2="700" y2="320"/>
    <line x1="80" y1="60" x2="80" y2="320"/>
  </g>
  <g>
    <g/>
    <text x="72" y="324" text-anchor="end" font-size="10" fill="#656d76">0</text>
    <line x1="80" y1="255" x2="700" y2="255" stroke="#d0d7de" stroke-width="1" stroke-dasharray="2 3"/>
    <text x="72" y="259" text-anchor="end" font-size="10" fill="#656d76">5000</text>
    <line x1="80" y1="190" x2="700" y2="190" stroke="#d0d7de" stroke-width="1" stroke-dasharray="2 3"/>
    <text x="72" y="194" text-anchor="end" font-size="10" fill="#656d76">10000</text>
    <line x1="80" y1="125" x2="700" y2="125" stroke="#d0d7de" stroke-width="1" stroke-dasharray="2 3"/>
    <text x="72" y="129" text-anchor="end" font-size="10" fill="#656d76">15000</text>
    <line x1="80" y1="60" x2="700" y2="60" stroke="#d0d7de" stroke-width="1" stroke-dasharray="2 3"/>
    <text x="72" y="64" text-anchor="end" font-size="10" fill="#656d76">20000</text>
  </g>
  <g>
    <rect x="92.4" y="319.0" width="47.6" height="1.0" rx="2" fill="#0969da"/>
    <rect x="142" y="319.2" width="47.6" height="0.8" rx="2" fill="#cf222e"/>
    <rect x="216.4" y="318.9" width="47.6" height="1.1" rx="2" fill="#0969da"/>
    <rect x="266" y="319.0" width="47.6" height="1.0" rx="2" fill="#cf222e"/>
    <rect x="340.4" y="318.4" width="47.6" height="1.6" rx="2" fill="#0969da"/>
    <rect x="390" y="319.2" width="47.6" height="0.8" rx="2" fill="#cf222e"/>
    <rect x="464.4" y="316.6" width="47.6" height="3.4" rx="2" fill="#0969da"/>
    <rect x="514" y="314.1" width="47.6" height="5.9" rx="2" fill="#cf222e"/>
    <rect x="588.4" y="232.7" width="47.6" height="87.3" rx="2" fill="#0969da"/>
    <rect x="638" y="181.2" width="47.6" height="138.8" rx="2" fill="#cf222e"/>
  </g>
  <g>
    <text x="116.2" y="315.0" text-anchor="middle" font-size="10" fill="#1f2328">76.0</text>
    <text x="165.8" y="315.2" text-anchor="middle" font-size="10" fill="#1f2328">63.8</text>
    <text x="240.2" y="314.9" text-anchor="middle" font-size="10" fill="#1f2328">83.5</text>
    <text x="289.8" y="315.0" text-anchor="middle" font-size="10" fill="#1f2328">77.5</text>
    <text x="364.2" y="314.4" text-anchor="middle" font-size="10" fill="#1f2328">127</text>
    <text x="413.8" y="315.2" text-anchor="middle" font-size="10" fill="#1f2328">62.4</text>
    <text x="488.2" y="312.6" text-anchor="middle" font-size="10" fill="#1f2328">262</text>
    <text x="537.8" y="310.1" text-anchor="middle" font-size="10" fill="#1f2328">456</text>
    <text x="612.2" y="228.7" text-anchor="middle" font-size="10" fill="#1f2328">6712</text>
    <text x="661.8" y="177.2" text-anchor="middle" font-size="10" fill="#1f2328">10674</text>
  </g>
  <g>
    <text x="142" y="336" text-anchor="middle" font-size="11" fill="#1f2328">int</text>
    <text x="266" y="336" text-anchor="middle" font-size="11" fill="#1f2328">string</text>
    <text x="390" y="336" text-anchor="middle" font-size="11" fill="#1f2328">bytes 1KB</text>
    <text x="514" y="336" text-anchor="middle" font-size="11" fill="#1f2328">Person struct</text>
    <text x="638" y="336" text-anchor="middle" font-size="11" fill="#1f2328">list[Person]*100</text>
  </g>
  <g>
    <g transform="translate(292, 344)">
      <rect x="0" y="-9" width="12" height="12" rx="2" fill="#0969da"/>
      <text x="18" y="1" font-size="11" fill="#1f2328">encode</text>
    </g>
    <g transform="translate(368, 344)">
      <rect x="0" y="-9" width="12" height="12" rx="2" fill="#cf222e"/>
      <text x="18" y="1" font-size="11" fill="#1f2328">decode</text>
    </g>
  </g>
</svg>
