<?xml version="1.0" encoding="UTF-8"?><svg xmlns="http://www.w3.org/2000/svg" viewBox="0 0 720 360" width="720" height="360" font-family="ui-sans-serif, system-ui, -apple-system, BlinkMacSystemFont, &quot;Segoe UI&quot;, Helvetica, Arial, sans-serif" font-size="12">
  <rect x="0" y="0" width="720" height="360" fill="#ffffff"/>
  <text x="360" y="26" text-anchor="middle" font-size="15" font-weight="600" fill="#1f2328">wireform-msgpack vs Hackage msgpack</text>
  <text x="360" y="44" text-anchor="middle" font-size="11" fill="#656d76">lower is better · ns · ghc-9.8.4 on darwin-aarch64, criterion 1.6.5</text>
  <g stroke="#d0d7de" stroke-width="1">
    <line x1="80" y1="320" x2="700" y2="320"/>
    <line x1="80" y1="60" x2="80" y2="320"/>
  </g>
  <g>
    <g/>
    <text x="72" y="324" text-anchor="end" font-size="10" fill="#656d76">0</text>
    <line x1="80" y1="255" x2="700" y2="255" stroke="#d0d7de" stroke-width="1" stroke-dasharray="2 3"/>
    <text x="72" y="259" text-anchor="end" font-size="10" fill="#656d76">500</text>
    <line x1="80" y1="190" x2="700" y2="190" stroke="#d0d7de" stroke-width="1" stroke-dasharray="2 3"/>
    <text x="72" y="194" text-anchor="end" font-size="10" fill="#656d76">1000</text>
    <line x1="80" y1="125" x2="700" y2="125" stroke="#d0d7de" stroke-width="1" stroke-dasharray="2 3"/>
    <text x="72" y="129" text-anchor="end" font-size="10" fill="#656d76">1500</text>
    <line x1="80" y1="60" x2="700" y2="60" stroke="#d0d7de" stroke-width="1" stroke-dasharray="2 3"/>
    <text x="72" y="64" text-anchor="end" font-size="10" fill="#656d76">2000</text>
  </g>
  <g>
    <rect x="171" y="282.1" width="62" height="37.9" rx="2" fill="#0969da"/>
    <rect x="235" y="165.2" width="62" height="154.8" rx="2" fill="#cf222e"/>
    <rect x="481" y="269.1" width="62" height="50.9" rx="2" fill="#0969da"/>
    <rect x="545" y="98.7" width="62" height="221.3" rx="2" fill="#cf222e"/>
  </g>
  <g>
    <text x="202" y="278.1" text-anchor="middle" font-size="10" fill="#1f2328">292</text>
    <text x="266" y="161.2" text-anchor="middle" font-size="10" fill="#1f2328">1191</text>
    <text x="512" y="265.1" text-anchor="middle" font-size="10" fill="#1f2328">391</text>
    <text x="576" y="94.7" text-anchor="middle" font-size="10" fill="#1f2328">1702</text>
  </g>
  <g>
    <text x="235" y="336" text-anchor="middle" font-size="11" fill="#1f2328">encode</text>
    <text x="545" y="336" text-anchor="middle" font-size="11" fill="#1f2328">decode</text>
  </g>
  <g>
    <g transform="translate(253.5, 344)">
      <rect x="0" y="-9" width="12" height="12" rx="2" fill="#0969da"/>
      <text x="18" y="1" font-size="11" fill="#1f2328">wireform-msgpack</text>
    </g>
    <g transform="translate(399.5, 344)">
      <rect x="0" y="-9" width="12" height="12" rx="2" fill="#cf222e"/>
      <text x="18" y="1" font-size="11" fill="#1f2328">msgpack</text>
    </g>
  </g>
</svg>
