<?xml version="1.0" encoding="UTF-8"?><svg xmlns="http://www.w3.org/2000/svg" viewBox="0 0 720 360" width="720" height="360" font-family="ui-sans-serif, system-ui, -apple-system, BlinkMacSystemFont, &quot;Segoe UI&quot;, Helvetica, Arial, sans-serif" font-size="12">
  <rect x="0" y="0" width="720" height="360" fill="#ffffff"/>
  <text x="360" y="26" text-anchor="middle" font-size="15" font-weight="600" fill="#1f2328">wireform-bson encode + decode (Person record)</text>
  <text x="360" y="44" text-anchor="middle" font-size="11" fill="#656d76">lower is better · ns · ghc-9.8.4 on darwin-aarch64, criterion 1.6.5</text>
  <g stroke="#d0d7de" stroke-width="1">
    <line x1="80" y1="320" x2="700" y2="320"/>
    <line x1="80" y1="60" x2="80" y2="320"/>
  </g>
  <g>
    <g/>
    <text x="72" y="324" text-anchor="end" font-size="10" fill="#656d76">0</text>
    <line x1="80" y1="255" x2="700" y2="255" stroke="#d0d7de" stroke-width="1" stroke-dasharray="2 3"/>
    <text x="72" y="259" text-anchor="end" font-size="10" fill="#656d76">25000</text>
    <line x1="80" y1="190" x2="700" y2="190" stroke="#d0d7de" stroke-width="1" stroke-dasharray="2 3"/>
    <text x="72" y="194" text-anchor="end" font-size="10" fill="#656d76">50000</text>
    <line x1="80" y1="125" x2="700" y2="125" stroke="#d0d7de" stroke-width="1" stroke-dasharray="2 3"/>
    <text x="72" y="129" text-anchor="end" font-size="10" fill="#656d76">75000</text>
    <line x1="80" y1="60" x2="700" y2="60" stroke="#d0d7de" stroke-width="1" stroke-dasharray="2 3"/>
    <text x="72" y="64" text-anchor="end" font-size="10" fill="#656d76">100000</text>
  </g>
  <g>
    <rect x="171" y="319.2" width="62" height="0.8" rx="2" fill="#0969da"/>
    <rect x="235" y="318.9" width="62" height="1.1" rx="2" fill="#cf222e"/>
    <rect x="481" y="168.7" width="62" height="151.3" rx="2" fill="#0969da"/>
    <rect x="545" y="254.6" width="62" height="65.4" rx="2" fill="#cf222e"/>
  </g>
  <g>
    <text x="202" y="315.2" text-anchor="middle" font-size="10" fill="#1f2328">317</text>
    <text x="266" y="314.9" text-anchor="middle" font-size="10" fill="#1f2328">428</text>
    <text x="512" y="164.7" text-anchor="middle" font-size="10" fill="#1f2328">58182</text>
    <text x="576" y="250.6" text-anchor="middle" font-size="10" fill="#1f2328">25172</text>
  </g>
  <g>
    <text x="235" y="336" text-anchor="middle" font-size="11" fill="#1f2328">single Person</text>
    <text x="545" y="336" text-anchor="middle" font-size="11" fill="#1f2328">[Person] x 100</text>
  </g>
  <g>
    <g transform="translate(292, 344)">
      <rect x="0" y="-9" width="12" height="12" rx="2" fill="#0969da"/>
      <text x="18" y="1" font-size="11" fill="#1f2328">encode</text>
    </g>
    <g transform="translate(368, 344)">
      <rect x="0" y="-9" width="12" height="12" rx="2" fill="#cf222e"/>
      <text x="18" y="1" font-size="11" fill="#1f2328">decode</text>
    </g>
  </g>
</svg>
