<?xml version="1.0" encoding="UTF-8"?><svg xmlns="http://www.w3.org/2000/svg" viewBox="0 0 720 360" width="720" height="360" font-family="ui-sans-serif, system-ui, -apple-system, BlinkMacSystemFont, &quot;Segoe UI&quot;, Helvetica, Arial, sans-serif" font-size="12">
  <rect x="0" y="0" width="720" height="360" fill="#0d1117"/>
  <text x="360" y="26" text-anchor="middle" font-size="15" font-weight="600" fill="#e6edf3">wireform-thrift binary vs compact wire protocols</text>
  <text x="360" y="44" text-anchor="middle" font-size="11" fill="#7d8590">lower is better · ns · ghc-9.8.4 on darwin-aarch64, criterion 1.6.5</text>
  <g stroke="#30363d" stroke-width="1">
    <line x1="80" y1="320" x2="700" y2="320"/>
    <line x1="80" y1="60" x2="80" y2="320"/>
  </g>
  <g>
    <g/>
    <text x="72" y="324" text-anchor="end" font-size="10" fill="#7d8590">0</text>
    <line x1="80" y1="255" x2="700" y2="255" stroke="#30363d" stroke-width="1" stroke-dasharray="2 3"/>
    <text x="72" y="259" text-anchor="end" font-size="10" fill="#7d8590">12500</text>
    <line x1="80" y1="190" x2="700" y2="190" stroke="#30363d" stroke-width="1" stroke-dasharray="2 3"/>
    <text x="72" y="194" text-anchor="end" font-size="10" fill="#7d8590">25000</text>
    <line x1="80" y1="125" x2="700" y2="125" stroke="#30363d" stroke-width="1" stroke-dasharray="2 3"/>
    <text x="72" y="129" text-anchor="end" font-size="10" fill="#7d8590">37500</text>
    <line x1="80" y1="60" x2="700" y2="60" stroke="#30363d" stroke-width="1" stroke-dasharray="2 3"/>
    <text x="72" y="64" text-anchor="end" font-size="10" fill="#7d8590">50000</text>
  </g>
  <g>
    <rect x="171" y="318.6" width="62" height="1.4" rx="2" fill="#58a6ff"/>
    <rect x="235" y="318.5" width="62" height="1.5" rx="2" fill="#ff7b72"/>
    <rect x="481" y="192.7" width="62" height="127.3" rx="2" fill="#58a6ff"/>
    <rect x="545" y="175.0" width="62" height="145.0" rx="2" fill="#ff7b72"/>
  </g>
  <g>
    <text x="202" y="314.6" text-anchor="middle" font-size="10" fill="#e6edf3">266</text>
    <text x="266" y="314.5" text-anchor="middle" font-size="10" fill="#e6edf3">290</text>
    <text x="512" y="188.7" text-anchor="middle" font-size="10" fill="#e6edf3">24478</text>
    <text x="576" y="171.0" text-anchor="middle" font-size="10" fill="#e6edf3">27893</text>
  </g>
  <g>
    <text x="235" y="336" text-anchor="middle" font-size="11" fill="#e6edf3">encode Person</text>
    <text x="545" y="336" text-anchor="middle" font-size="11" fill="#e6edf3">encode [Person] x 100</text>
  </g>
  <g>
    <g transform="translate(288.5, 344)">
      <rect x="0" y="-9" width="12" height="12" rx="2" fill="#58a6ff"/>
      <text x="18" y="1" font-size="11" fill="#e6edf3">binary</text>
    </g>
    <g transform="translate(364.5, 344)">
      <rect x="0" y="-9" width="12" height="12" rx="2" fill="#ff7b72"/>
      <text x="18" y="1" font-size="11" fill="#e6edf3">compact</text>
    </g>
  </g>
</svg>
