<?xml version="1.0" encoding="UTF-8"?><svg xmlns="http://www.w3.org/2000/svg" viewBox="0 0 720 360" width="720" height="360" font-family="ui-sans-serif, system-ui, -apple-system, BlinkMacSystemFont, &quot;Segoe UI&quot;, Helvetica, Arial, sans-serif" font-size="12">
  <rect x="0" y="0" width="720" height="360" fill="#0d1117"/>
  <text x="360" y="26" text-anchor="middle" font-size="15" font-weight="600" fill="#e6edf3">wireform-capnproto encode + decode (zero-copy decode)</text>
  <text x="360" y="44" text-anchor="middle" font-size="11" fill="#7d8590">lower is better · ns · ghc-9.8.4 on darwin-aarch64, criterion 1.6.5. Decode is a zero-copy cursor by design: only the outer envelope is resolved at decode time. Per-field reads happen lazily.</text>
  <g stroke="#30363d" stroke-width="1">
    <line x1="80" y1="320" x2="700" y2="320"/>
    <line x1="80" y1="60" x2="80" y2="320"/>
  </g>
  <g>
    <g/>
    <text x="72" y="324" text-anchor="end" font-size="10" fill="#7d8590">0</text>
    <line x1="80" y1="255" x2="700" y2="255" stroke="#30363d" stroke-width="1" stroke-dasharray="2 3"/>
    <text x="72" y="259" text-anchor="end" font-size="10" fill="#7d8590">2500</text>
    <line x1="80" y1="190" x2="700" y2="190" stroke="#30363d" stroke-width="1" stroke-dasharray="2 3"/>
    <text x="72" y="194" text-anchor="end" font-size="10" fill="#7d8590">5000</text>
    <line x1="80" y1="125" x2="700" y2="125" stroke="#30363d" stroke-width="1" stroke-dasharray="2 3"/>
    <text x="72" y="129" text-anchor="end" font-size="10" fill="#7d8590">7500</text>
    <line x1="80" y1="60" x2="700" y2="60" stroke="#30363d" stroke-width="1" stroke-dasharray="2 3"/>
    <text x="72" y="64" text-anchor="end" font-size="10" fill="#7d8590">10000</text>
  </g>
  <g>
    <rect x="171" y="317.2" width="62" height="2.8" rx="2" fill="#58a6ff"/>
    <rect x="235" y="319.3" width="62" height="0.7" rx="2" fill="#ff7b72"/>
    <rect x="481" y="97.8" width="62" height="222.2" rx="2" fill="#58a6ff"/>
    <rect x="545" y="319.3" width="62" height="0.7" rx="2" fill="#ff7b72"/>
  </g>
  <g>
    <text x="202" y="313.2" text-anchor="middle" font-size="10" fill="#e6edf3">108</text>
    <text x="266" y="315.3" text-anchor="middle" font-size="10" fill="#e6edf3">27.1</text>
    <text x="512" y="93.8" text-anchor="middle" font-size="10" fill="#e6edf3">8547</text>
    <text x="576" y="315.3" text-anchor="middle" font-size="10" fill="#e6edf3">27.0</text>
  </g>
  <g>
    <text x="235" y="336" text-anchor="middle" font-size="11" fill="#e6edf3">Person struct</text>
    <text x="545" y="336" text-anchor="middle" font-size="11" fill="#e6edf3">Person[100]</text>
  </g>
  <g>
    <g transform="translate(292, 344)">
      <rect x="0" y="-9" width="12" height="12" rx="2" fill="#58a6ff"/>
      <text x="18" y="1" font-size="11" fill="#e6edf3">encode</text>
    </g>
    <g transform="translate(368, 344)">
      <rect x="0" y="-9" width="12" height="12" rx="2" fill="#ff7b72"/>
      <text x="18" y="1" font-size="11" fill="#e6edf3">decode</text>
    </g>
  </g>
</svg>
